<svg id="Layer_1" data-name="Layer 1" xmlns="http://www.w3.org/2000/svg" viewBox="0 0 26.5 24.19">
  <title>add_photo_icon</title>
  <path id="Icon_material-add-a-photo" data-name="Icon material-add-a-photo" d="M16.33,19.1V15.64h2.3V19.1h3.46v2.3H18.63v3.46h-2.3V21.41H12.87v-2.3ZM19.78,26V22.56h3.46V19.1h8.07l2.1,2.3h3.66a2.31,2.31,0,0,1,2.3,2.3V37.54a2.31,2.31,0,0,1-2.3,2.3H18.63a2.32,2.32,0,0,1-2.3-2.3V26Zm8.07,10.37a5.76,5.76,0,1,0-5.76-5.76,5.76,5.76,0,0,0,5.76,5.76Zm-3.69-5.76a3.69,3.69,0,1,0,3.69-3.68,3.69,3.69,0,0,0-3.69,3.68Z" transform="translate(-12.87 -15.64)"/>
</svg>
