<svg id="Layer_1" data-name="Layer 1" xmlns="http://www.w3.org/2000/svg" xmlns:xlink="http://www.w3.org/1999/xlink" viewBox="0 0 506.36 68.6">
  <defs>
    <style>
      .cls-1 {
        fill: url(#linear-gradient);
      }

      .cls-2 {
        fill: url(#linear-gradient-2);
      }

      .cls-3 {
        fill: url(#linear-gradient-3);
      }

      .cls-4 {
        fill: url(#linear-gradient-4);
      }

      .cls-5 {
        fill: url(#linear-gradient-5);
      }

      .cls-6 {
        fill: url(#linear-gradient-6);
      }

      .cls-7 {
        fill: url(#linear-gradient-7);
      }

      .cls-8 {
        fill: url(#linear-gradient-8);
      }

      .cls-9 {
        fill: url(#linear-gradient-9);
      }
    </style>
    <linearGradient id="linear-gradient" x1="83.01" y1="12.32" x2="83.01" y2="78.32" gradientUnits="userSpaceOnUse">
      <stop offset="0" stop-color="#642460"/>
      <stop offset="1" stop-color="#370357"/>
    </linearGradient>
    <linearGradient id="linear-gradient-2" x1="34.04" y1="12.33" x2="34.04" y2="78.33" xlink:href="#linear-gradient"/>
    <linearGradient id="linear-gradient-3" x1="124.3" y1="12.32" x2="124.3" y2="78.32" xlink:href="#linear-gradient"/>
    <linearGradient id="linear-gradient-4" x1="186.48" y1="11.59" x2="186.48" y2="79.59" xlink:href="#linear-gradient"/>
    <linearGradient id="linear-gradient-5" x1="255.83" y1="12.59" x2="255.83" y2="78.59" xlink:href="#linear-gradient"/>
    <linearGradient id="linear-gradient-6" x1="297.84" y1="12.57" x2="297.84" y2="78.57" xlink:href="#linear-gradient"/>
    <linearGradient id="linear-gradient-7" x1="357.61" y1="11.99" x2="357.61" y2="77.99" xlink:href="#linear-gradient"/>
    <linearGradient id="linear-gradient-8" x1="424.11" y1="10.99" x2="424.11" y2="78.99" xlink:href="#linear-gradient"/>
    <linearGradient id="linear-gradient-9" x1="483.9" y1="12.56" x2="483.9" y2="78.56" xlink:href="#linear-gradient"/>
  </defs>
  <title>logo_flashback</title>
  <g>
    <path class="cls-1" d="M108.16,65v13.3H57.86v-66h17.2V65Z" transform="translate(-8.39 -10.99)"/>
    <path class="cls-2" d="M25.59,25.63v14h27.2v13.3H25.59v25.4H8.39v-66h51.3v13.3Z" transform="translate(-8.39 -10.99)"/>
    <path class="cls-3" d="M135.55,63.42h-22.8l-4.59,14.9H90.86l23.19-66h20.61l23.09,66h-17.7ZM132,51.72l-4.79-15.8-2.91-10.4h-.2l-2.69,10.3-5,15.9Z" transform="translate(-8.39 -10.99)"/>
    <g>
      <path class="cls-4" d="M203.48,14.39a35.14,35.14,0,0,1,12.35,9.1l-9.7,11.2a21.34,21.34,0,0,0-7.75-7.35A22.57,22.57,0,0,0,187.73,25q-5.19,0-8,1.8a5.49,5.49,0,0,0-2.8,4.8c0,1.67,1,3,2.95,4.05s5.32,2,10.05,2.85q13.71,2.5,19.55,7.3t5.85,13.5a17.15,17.15,0,0,1-3.6,10.9,22.21,22.21,0,0,1-9.95,7,40.32,40.32,0,0,1-14.35,2.4q-11.19,0-18.2-2.75a31.51,31.51,0,0,1-12.1-8.45l8.8-12a22.29,22.29,0,0,0,8.8,7.6,28.64,28.64,0,0,0,11.8,2.2c3.67,0,6.42-.51,8.25-1.55a4.84,4.84,0,0,0,2.75-4.45q0-2.3-2.95-3.75a42.43,42.43,0,0,0-9.85-2.75,73.38,73.38,0,0,1-14-4,20.58,20.58,0,0,1-8.6-6.35A16.34,16.34,0,0,1,159,33.09,19.25,19.25,0,0,1,162.38,22a22,22,0,0,1,9.8-7.65,38.78,38.78,0,0,1,15.25-2.75A41.39,41.39,0,0,1,203.48,14.39Z" transform="translate(-8.39 -10.99)"/>
      <path class="cls-5" d="M285.63,12.59v66h-17.2V52h-25.2v26.6H226v-66h17.2v26.1h25.2V12.59Z" transform="translate(-8.39 -10.99)"/>
    </g>
    <path class="cls-6" d="M269,12.57h32.1q23.79.09,23.8,17.8a14.67,14.67,0,0,1-3.4,9.8q-3.41,4-10,5v.1q7.4,1,11.25,5.15a14.64,14.64,0,0,1,3.85,10.35q0,8.59-6.1,13.2t-17.9,4.6H269Zm29,27q9.3,0,9.3-7.2t-9.3-7.2h-12.4v14.4Zm1.7,26.9c3.06,0,5.38-.64,6.95-1.9a6.68,6.68,0,0,0,2.35-5.5,6.41,6.41,0,0,0-2.35-5.35c-1.57-1.24-3.89-1.85-6.95-1.85h-14.1v14.6Z" transform="translate(-8.39 -10.99)"/>
    <g>
      <path class="cls-7" d="M368.86,63.09h-22.8L341.46,78h-17.3l23.2-66H368l23.1,66h-17.7Zm-3.6-11.7-4.8-15.8-2.9-10.4h-.2l-2.7,10.3-5,15.9Z" transform="translate(-8.39 -10.99)"/>
      <path class="cls-8" d="M444.36,74q-7.59,5-18.5,4.95a35.12,35.12,0,0,1-17.3-4,27.12,27.12,0,0,1-11.2-11.7q-3.9-7.65-3.9-18.25a39.84,39.84,0,0,1,3.9-18.2A27.08,27.08,0,0,1,408.56,15a34.91,34.91,0,0,1,17.2-4q10.8,0,18.3,4.55A21.78,21.78,0,0,1,454,29.19l-15.1,6.1q-1.39-6-4.3-8.4c-1.93-1.6-4.67-2.4-8.2-2.4q-7.29,0-11.3,5.25t-4,15.25q0,10,3.85,15.25t11.15,5.25c3.67,0,6.57-.86,8.7-2.6s3.6-4.46,4.4-8.2l15.6,4.4Q452,69.1,444.36,74Z" transform="translate(-8.39 -10.99)"/>
    </g>
    <path class="cls-9" d="M472.74,78.56H453.05l23.83-39.2-22.62-26.8h19.29l23.83,29.3V12.56h17.37v66H497.38V60l-8.08-9.7Z" transform="translate(-8.39 -10.99)"/>
  </g>
</svg>
