<svg id="Layer_1" data-name="Layer 1" xmlns="http://www.w3.org/2000/svg" xmlns:xlink="http://www.w3.org/1999/xlink" viewBox="0 0 506.74498 192.72094"><defs><style>.cls-1{fill:url(#linear-gradient);}.cls-2{fill:url(#linear-gradient-2);}.cls-3{fill:url(#linear-gradient-3);}.cls-4{fill:url(#linear-gradient-4);}.cls-5{fill:url(#linear-gradient-5);}.cls-6{fill:url(#linear-gradient-6);}.cls-7{fill:url(#linear-gradient-7);}.cls-8{fill:url(#linear-gradient-8);}.cls-9{fill:url(#linear-gradient-9);}.cls-10{fill:url(#linear-gradient-10);}.cls-11{fill:url(#linear-gradient-11);}</style><linearGradient id="linear-gradient" x1="-126.93434" y1="376.65519" x2="-126.93434" y2="381.1119" gradientTransform="translate(2655.59993 -8700.96017) scale(20.56 23.1)" gradientUnits="userSpaceOnUse"><stop offset="0" stop-color="#83469b"/><stop offset="1" stop-color="#361e4d"/></linearGradient><linearGradient id="linear-gradient-2" x1="-130.241" y1="385.57656" x2="-130.241" y2="390.03403" gradientTransform="translate(7698.85977 -7278.60015) scale(57.51 18.93)" xlink:href="#linear-gradient"/><linearGradient id="linear-gradient-3" x1="83.39499" y1="-28.44597" x2="83.39499" y2="-94.44597" gradientTransform="matrix(1, 0, 0, -1, -8.39, 97.01)" gradientUnits="userSpaceOnUse"><stop offset="0" stop-color="#642460"/><stop offset="1" stop-color="#370357"/></linearGradient><linearGradient id="linear-gradient-4" x1="34.42498" y1="-28.47597" x2="34.42498" y2="-94.47597" xlink:href="#linear-gradient-3"/><linearGradient id="linear-gradient-5" x1="124.68999" y1="-28.46597" x2="124.68999" y2="-94.46597" xlink:href="#linear-gradient-3"/><linearGradient id="linear-gradient-6" x1="186.86498" y1="-27.73201" x2="186.86498" y2="-95.75094" xlink:href="#linear-gradient-3"/><linearGradient id="linear-gradient-7" x1="256.19999" y1="-28.73597" x2="256.19999" y2="-94.74597" xlink:href="#linear-gradient-3"/><linearGradient id="linear-gradient-8" x1="298.18842" y1="-28.71597" x2="298.18842" y2="-94.71598" xlink:href="#linear-gradient-3"/><linearGradient id="linear-gradient-9" x1="358.01499" y1="-28.14597" x2="358.01499" y2="-94.14597" xlink:href="#linear-gradient-3"/><linearGradient id="linear-gradient-10" x1="424.50892" y1="-27.13305" x2="424.50892" y2="-95.11008" xlink:href="#linear-gradient-3"/><linearGradient id="linear-gradient-11" x1="484.28498" y1="-28.70597" x2="484.28498" y2="-94.70597" xlink:href="#linear-gradient-3"/></defs><title>logo-stacked</title><g id="roku"><path id="Path_1" data-name="Path 1" class="cls-1" d="M53.05,34.4A17.2,17.2,0,0,0,35.94,17.12h-8.5v34.4h8.5A17.16,17.16,0,0,0,53.05,34.4m38.61,68.58H60.51L35.77,68.65H27.44v34.26H0V.04H39.33c22.68,0,41.19,15.43,41.19,34.4A33.43,33.43,0,0,1,62.63,62.63l29,40.36" transform="translate(0 -0.04)"/><path id="Path_2" data-name="Path 2" class="cls-2" d="M122.64,40.57c-7.25,0-13.42,9.86-13.42,22.06s6.22,22.07,13.42,22.07c7.42,0,13.57-9.87,13.57-22.07s-6.15-22.06-13.57-22.06M164.9,62.63a42.19,42.19,0,1,1-42.41-42h.15a42.06,42.06,0,0,1,42.26,41.859V62.6m64.44-40.23L197.71,54.04V22.27H170.25v80.64h27.46V70.2l33,32.71h34.56l-42-42,34.78-34.75V74.04c0,15.89,9.55,30.56,33.62,30.56a38.11,38.11,0,0,0,27-12.35l12.35,10.65h5.86V22.37H309.44V74.54a15.39,15.39,0,0,1-14,8.79c-6.75,0-9.85-4-9.85-16.82V22.37Z" transform="translate(0 -0.04)"/></g><path class="cls-3" d="M100.155,178.156v13.3h-50.3v-66h17.2v52.7Z" transform="translate(0 -0.04)"/><path class="cls-4" d="M17.585,138.786v14h27.2v13.3h-27.2v25.4H.385v-66h51.3v13.3Z" transform="translate(0 -0.04)"/><path class="cls-5" d="M127.545,176.576h-22.8l-4.59,14.9h-17.3l23.19-66h20.61l23.09,66h-17.7Zm-3.55-11.7-4.79-15.8-2.91-10.4h-.2l-2.69,10.3-5,15.9Z" transform="translate(0 -0.04)"/><path class="cls-6" d="M195.475,127.546a35.14,35.14,0,0,1,12.35,9.1l-9.7,11.2a21.34013,21.34013,0,0,0-7.75-7.35,22.57014,22.57014,0,0,0-10.65-2.34q-5.19,0-8,1.8a5.49,5.49,0,0,0-2.8,4.8c0,1.67,1,3,2.95,4.05s5.32,2,10.05,2.85q13.71,2.5,19.55,7.3t5.85,13.5a17.15008,17.15008,0,0,1-3.6,10.9,22.21008,22.21008,0,0,1-9.95,7,40.32018,40.32018,0,0,1-14.35,2.4q-11.19,0-18.2-2.75a31.51012,31.51012,0,0,1-12.1-8.45l8.8-12a22.28987,22.28987,0,0,0,8.8,7.6,28.64017,28.64017,0,0,0,11.8,2.2c3.67,0,6.42-.51,8.25-1.55a4.84,4.84,0,0,0,2.75-4.45q0-2.3-2.95-3.75a42.43049,42.43049,0,0,0-9.85-2.75,73.37942,73.37942,0,0,1-14-4,20.58,20.58,0,0,1-8.6-6.35,16.34008,16.34008,0,0,1-3.13-10.26,19.25008,19.25008,0,0,1,3.38-11.09,21.99995,21.99995,0,0,1,9.8-7.65,38.78,38.78,0,0,1,15.25-2.75A41.39006,41.39006,0,0,1,195.475,127.546Z" transform="translate(0 -0.04)"/><path class="cls-7" d="M277.625,125.746v66h-17.2v-26.59h-25.2v26.6h-17.23v-66h17.2v26.1h25.2v-26.11Z" transform="translate(0 -0.04)"/><path class="cls-8" d="M260.995,125.726h32.1q23.79.09,23.8,17.8a14.67,14.67,0,0,1-3.4,9.8q-3.41,4-10,5v.1q7.4,1,11.25,5.15a14.64,14.64,0,0,1,3.85,10.35q0,8.59-6.1,13.2t-17.9,4.6h-33.6Zm29,27q9.3,0,9.3-7.2t-9.3-7.2h-12.4v14.4Zm1.7,26.9c3.06,0,5.38-.64,6.95-1.9a6.68,6.68,0,0,0,2.35-5.5,6.41,6.41,0,0,0-2.35-5.35c-1.57-1.24-3.89-1.85-6.95-1.85h-14.1v14.6Z" transform="translate(0 -0.04)"/><path class="cls-9" d="M360.855,176.246h-22.8l-4.6,14.91h-17.3l23.2-66h20.64l23.1,66h-17.7Zm-3.6-11.7-4.8-15.8-2.9-10.4h-.2l-2.7,10.3-5,15.9Z" transform="translate(0 -0.04)"/><path class="cls-10" d="M436.355,187.156q-7.59,5-18.5,4.95a35.12008,35.12008,0,0,1-17.3-4,27.12,27.12,0,0,1-11.2-11.7q-3.9-7.65-3.9-18.25a39.84,39.84,0,0,1,3.9-18.2,27.07993,27.07993,0,0,1,11.2-11.8,34.91,34.91,0,0,1,17.2-4q10.8,0,18.3,4.55a21.78,21.78,0,0,1,9.94,13.64l-15.1,6.1q-1.39-6-4.3-8.4c-1.93-1.6-4.67-2.4-8.2-2.4q-7.29,0-11.3,5.25t-4,15.25q0,10,3.85,15.25t11.15,5.25c3.67,0,6.57-.86,8.7-2.6s3.6-4.46,4.4-8.2l15.6,4.4Q443.995,182.256,436.355,187.156Z" transform="translate(0 -0.04)"/><path class="cls-11" d="M464.735,191.716h-19.69l23.83-39.2-22.62-26.8h19.29l23.83,29.3v-29.3h17.37v66h-17.37v-18.56l-8.08-9.7Z" transform="translate(0 -0.04)"/></svg>