<?xml version="1.0" encoding="utf-8"?>
<!-- Generator: Adobe Illustrator 24.0.3, SVG Export Plug-In . SVG Version: 6.00 Build 0)  -->
<svg version="1.1" id="Layer_1" xmlns="http://www.w3.org/2000/svg" xmlns:xlink="http://www.w3.org/1999/xlink" x="0px" y="0px"
	 viewBox="0 0 779.15 108.97" style="enable-background:new 0 0 779.15 108.97;" xml:space="preserve">
<style type="text/css">
	.st0{fill:url(#Path_1_1_);}
	.st1{fill:url(#Path_2_1_);}
	.st2{fill:#FFFFFF;}
</style>
<g id="roku" transform="translate(-137.5 -280.865)">
	
		<linearGradient id="Path_1_1_" gradientUnits="userSpaceOnUse" x1="140.8146" y1="368.9275" x2="140.8146" y2="364.469" gradientTransform="matrix(20.561 0 0 -23.098 -2709.1992 8806.2793)">
		<stop  offset="0" style="stop-color:#83469B"/>
		<stop  offset="1" style="stop-color:#361E4D"/>
	</linearGradient>
	<path id="Path_1" class="st0" d="M193.31,319.19c0.04-9.5-7.62-17.23-17.12-17.28h-8.47v34.41h8.47
		C185.64,336.28,193.28,328.63,193.31,319.19 M231.92,387.77h-31.16l-24.74-34.33h-8.32v34.25h-27.46v-102.9h39.34
		c22.68,0,41.19,15.42,41.19,34.39c-0.5,11.93-7.32,22.69-17.9,28.23L231.92,387.77"/>
	
		<linearGradient id="Path_2_1_" gradientUnits="userSpaceOnUse" x1="141.8459" y1="363.2524" x2="141.8459" y2="358.7939" gradientTransform="matrix(57.5089 0 0 -18.9261 -7808.4229 7180.396)">
		<stop  offset="0" style="stop-color:#83469B"/>
		<stop  offset="1" style="stop-color:#361E4D"/>
	</linearGradient>
	<path id="Path_2" class="st1" d="M262.89,325.36c-7.25,0-13.42,9.86-13.42,22.06c0,12.2,6.17,22.07,13.42,22.07
		c7.42,0,13.58-9.87,13.58-22.07S270.31,325.36,262.89,325.36 M305.16,347.42c0.12,23.3-18.67,42.29-41.97,42.41
		c-23.3,0.12-42.29-18.67-42.41-41.97c-0.12-23.3,18.67-42.29,41.97-42.41c0.05,0,0.1,0,0.15,0c23.23-0.11,42.15,18.63,42.27,41.86
		C305.16,347.34,305.16,347.38,305.16,347.42 M369.6,307.16l-31.63,31.63v-31.73h-27.46v80.65h27.46v-32.71l33.02,32.71h34.55
		l-41.96-41.97l34.78-34.75v47.86c0,15.89,9.55,30.55,33.62,30.55c10.3-0.3,20.04-4.75,27-12.34l12.35,10.65h5.86v-80.54h-27.46
		v52.16c-2.57,5.42-8.06,8.85-14.06,8.79c-6.75,0-9.85-4.01-9.85-16.81v-44.14L369.6,307.16z"/>
</g>
<g id="logo_flashback" transform="translate(0 0.003)">
	<path id="Path_6" class="st2" d="M438.91,95.88v10.99h-41.55V52.35h14.19v43.53H438.91z"/>
	<path id="Path_7" class="st2" d="M370.7,63.36v11.58h22.47v10.97H370.7v20.98h-14.21V52.37h42.38v10.99L370.7,63.36z"/>
	<path id="Path_8" class="st2" d="M461.53,94.58h-18.84l-3.79,12.32h-14.28l19.15-54.52h17.03l19.07,54.52h-14.62L461.53,94.58z
		 M458.6,84.91l-3.96-13.05l-2.41-8.59h-0.16l-2.22,8.51l-4.13,13.13L458.6,84.91z"/>
	<g id="Group_1" transform="translate(32.899 0.13)">
		<path id="Path_9" class="st2" d="M484.74,53.94c3.91,1.72,7.4,4.29,10.2,7.52l-8.01,9.27c-1.58-2.53-3.79-4.62-6.4-6.07
			c-2.73-1.35-5.75-2.02-8.8-1.93c-2.3-0.13-4.59,0.38-6.61,1.49c-1.43,0.81-2.32,2.32-2.31,3.97c0.08,1.5,1.03,2.82,2.43,3.36
			c2.64,1.17,5.44,1.96,8.3,2.35c5.79,0.68,11.33,2.75,16.15,6.03c3.26,2.75,5.04,6.86,4.83,11.12c0.07,3.26-0.99,6.44-2.99,9
			c-2.15,2.65-4.99,4.66-8.22,5.78c-3.8,1.37-7.81,2.05-11.85,1.98c-5.11,0.17-10.2-0.6-15.04-2.27c-3.84-1.5-7.26-3.9-9.99-6.98
			l7.27-9.91c1.82,2.7,4.33,4.86,7.27,6.28c3.08,1.29,6.41,1.91,9.75,1.82c2.34,0.14,4.68-0.3,6.82-1.28
			c1.41-0.68,2.3-2.11,2.27-3.67c0-1.27-0.81-2.3-2.43-3.1c-2.61-1.08-5.34-1.84-8.14-2.27c-3.96-0.71-7.84-1.82-11.58-3.31
			c-2.78-1.09-5.23-2.89-7.1-5.23c-1.79-2.45-2.7-5.44-2.58-8.47c-0.03-3.27,0.94-6.47,2.79-9.16c2.04-2.84,4.85-5.03,8.1-6.32
			c4-1.6,8.29-2.37,12.6-2.27C476,51.54,480.51,52.31,484.74,53.94z"/>
		<path id="Path_10" class="st2" d="M552.6,52.46v54.52h-14.19V85.01h-20.82v21.97h-14.25V52.46h14.19v21.56h20.82V52.46H552.6z"/>
	</g>
	<path id="Path_11" class="st2" d="M571.76,52.57h26.52c13.1,0.05,19.65,4.95,19.66,14.7c0.08,2.95-0.92,5.83-2.81,8.1
		c-2.15,2.35-5.09,3.82-8.26,4.13v0.07c3.5,0.28,6.79,1.79,9.29,4.25c2.14,2.32,3.28,5.39,3.18,8.55c0.23,4.24-1.66,8.33-5.04,10.9
		c-4.39,2.83-9.58,4.16-14.79,3.8h-27.75V52.57z M595.72,74.87c5.12,0,7.68-1.98,7.68-5.95s-2.56-5.95-7.68-5.95h-10.24v11.89
		L595.72,74.87z M597.12,97.09c2.04,0.14,4.06-0.41,5.74-1.57c1.33-1.12,2.05-2.81,1.94-4.54c0.1-1.7-0.62-3.34-1.94-4.42
		c-1.69-1.13-3.71-1.67-5.74-1.53h-11.65v12.06L597.12,97.09z"/>
	<g id="Group_2" transform="translate(69.844 -0.003)">
		<path id="Path_12" class="st2" d="M584.41,94.3h-18.85l-3.8,12.32h-14.28l19.17-54.52h17.05l19.08,54.52h-14.62L584.41,94.3z
			 M581.42,84.64l-3.97-13.05L575.06,63h-0.16l-2.24,8.51l-4.11,13.14L581.42,84.64z"/>
		<path id="Path_13" class="st2" d="M646.77,103.32c-4.57,2.86-9.89,4.29-15.28,4.09c-4.97,0.14-9.89-1-14.29-3.31
			c-4-2.2-7.22-5.58-9.25-9.66c-2.26-4.7-3.36-9.87-3.22-15.08c-0.13-5.2,0.98-10.35,3.22-15.04c2.01-4.12,5.24-7.52,9.25-9.75
			c9.28-4.56,20.19-4.39,29.32,0.46c4.14,2.5,7.1,6.56,8.22,11.27l-12.47,5.04c-0.41-2.63-1.65-5.07-3.55-6.94
			c-1.96-1.43-4.35-2.14-6.77-1.98c-3.64-0.18-7.13,1.44-9.34,4.34c-2.45,3.73-3.61,8.15-3.31,12.6c-0.29,4.43,0.82,8.84,3.18,12.6
			c2.14,2.9,5.61,4.53,9.21,4.34c2.57,0.15,5.11-0.61,7.19-2.15c1.95-1.77,3.24-4.17,3.63-6.77l12.89,3.63
			C654.18,96.04,651.1,100.45,646.77,103.32z"/>
	</g>
	<path id="Path_14" class="st2" d="M740.06,107.08H723.8l19.68-32.38l-18.67-22.14h15.94l19.68,24.2v-24.2h14.34v54.52h-14.35V91.75
		l-6.67-8.01L740.06,107.08z"/>
</g>
</svg>
