<svg id="Layer_1" data-name="Layer 1" xmlns="http://www.w3.org/2000/svg" xmlns:xlink="http://www.w3.org/1999/xlink" viewBox="0 0 772.02 105.04">
  <defs>
    <style>
      .cls-1 {
        fill: url(#linear-gradient);
      }

      .cls-2 {
        fill: url(#linear-gradient-2);
      }

      .cls-3 {
        fill: #fff;
      }
    </style>
    <linearGradient id="linear-gradient" x1="3.31" y1="88.06" x2="3.31" y2="83.6" gradientTransform="matrix(20.56, 0, 0, -23.1, -19.56, 2038)" gradientUnits="userSpaceOnUse">
      <stop offset="0" stop-color="#83469b"/>
      <stop offset="1" stop-color="#361e4d"/>
    </linearGradient>
    <linearGradient id="linear-gradient-2" x1="4.35" y1="82.39" x2="4.35" y2="77.93" gradientTransform="matrix(57.51, 0, 0, -18.93, -38.45, 1583.86)" xlink:href="#linear-gradient"/>
  </defs>
  <title>logo_w_flashback2</title>
  <g id="roku">
    <path id="Path_1" data-name="Path 1" class="cls-1" d="M55.81,38.32A17.21,17.21,0,0,0,38.69,21H30.22V55.45h8.47A17.17,17.17,0,0,0,55.81,38.32m38.61,68.59H63.27L38.53,72.58H30.21v34.25H2.75V3.93H42.09c22.68,0,41.19,15.42,41.19,34.39a33.44,33.44,0,0,1-17.9,28.23l29.05,40.36" transform="translate(-2.75 -3.93)"/>
    <path id="Path_2" data-name="Path 2" class="cls-2" d="M125.39,44.5c-7.25,0-13.42,9.86-13.42,22s6.17,22.07,13.42,22.07c7.42,0,13.58-9.87,13.58-22.07s-6.16-22-13.58-22m42.27,22a42.19,42.19,0,1,1-42.41-42h.14a42.05,42.05,0,0,1,42.27,41.85v.11M232.1,26.29,200.47,57.92V26.19H173v80.65h27.46V74.12l33,32.72H268l-42-42,34.78-34.74V78c0,15.89,9.55,30.55,33.62,30.55a38.14,38.14,0,0,0,27-12.34l12.35,10.65h5.85V26.3H312.23V78.46a15.39,15.39,0,0,1-14.06,8.79c-6.75,0-9.85-4-9.85-16.81V26.3Z" transform="translate(-2.75 -3.93)"/>
  </g>
  <g id="logo_flashback" data-name="logo flashback">
    <path id="Path_6" data-name="Path 6" class="cls-3" d="M438.91,95.88v11H397.36V52.35h14.19V95.88Z" transform="translate(-2.75 -3.93)"/>
    <path id="Path_7" data-name="Path 7" class="cls-3" d="M370.7,63.36V74.94h22.47v11H370.7v21H356.49V52.37h42.38v11Z" transform="translate(-2.75 -3.93)"/>
    <path id="Path_8" data-name="Path 8" class="cls-3" d="M461.53,94.58H442.69L438.9,106.9H424.62l19.15-54.52h17l19.07,54.52H465.25Zm-2.93-9.67-4-13-2.4-8.59h-.17l-2.22,8.51-4.13,13.13Z" transform="translate(-2.75 -3.93)"/>
    <g id="Group_1" data-name="Group 1">
      <path id="Path_9" data-name="Path 9" class="cls-3" d="M517.64,54.08a29,29,0,0,1,10.21,7.52l-8,9.26a17.66,17.66,0,0,0-6.4-6.07,18.63,18.63,0,0,0-8.8-1.94,12.29,12.29,0,0,0-6.61,1.5,4.52,4.52,0,0,0-2.31,4,3.82,3.82,0,0,0,2.43,3.36A30.49,30.49,0,0,0,506.45,74a36.18,36.18,0,0,1,16.14,6,13.63,13.63,0,0,1,4.83,11.12,14.17,14.17,0,0,1-3,9,18.35,18.35,0,0,1-8.21,5.78,33.07,33.07,0,0,1-11.86,2,41.73,41.73,0,0,1-15-2.27,26,26,0,0,1-10-7l7.27-9.91a18.4,18.4,0,0,0,7.27,6.28,23.58,23.58,0,0,0,9.75,1.82,14.26,14.26,0,0,0,6.81-1.28,4,4,0,0,0,2.27-3.68c0-1.26-.81-2.3-2.43-3.09a34.92,34.92,0,0,0-8.14-2.27,60.53,60.53,0,0,1-11.58-3.31A17,17,0,0,1,483.46,78a13.54,13.54,0,0,1-2.59-8.47,15.91,15.91,0,0,1,2.8-9.16,18.11,18.11,0,0,1,8.09-6.32,32,32,0,0,1,12.6-2.27A34,34,0,0,1,517.64,54.08Z" transform="translate(-2.75 -3.93)"/>
      <path id="Path_10" data-name="Path 10" class="cls-3" d="M585.5,52.59v54.53H571.31v-22H550.49v22H536.24V52.6h14.2V74.15h20.81V52.59Z" transform="translate(-2.75 -3.93)"/>
    </g>
    <path id="Path_11" data-name="Path 11" class="cls-3" d="M571.76,52.57h26.52q19.65.07,19.66,14.71a12.1,12.1,0,0,1-2.81,8.09,12.89,12.89,0,0,1-8.26,4.13v.07a14.91,14.91,0,0,1,9.29,4.26,12,12,0,0,1,3.18,8.55,12.84,12.84,0,0,1-5,10.9,24.19,24.19,0,0,1-14.78,3.8H571.76Zm24,22.31q7.68,0,7.68-5.95t-7.68-6H585.47V74.87Zm1.4,22.22a9.06,9.06,0,0,0,5.74-1.57A5.51,5.51,0,0,0,604.8,91a5.3,5.3,0,0,0-1.94-4.42A9.12,9.12,0,0,0,597.12,85H585.47V97.1Z" transform="translate(-2.75 -3.93)"/>
    <g id="Group_2" data-name="Group 2">
      <path id="Path_12" data-name="Path 12" class="cls-3" d="M654.25,94.3H635.4l-3.79,12.33H617.33L636.49,52.1h17l19.08,54.53H658Zm-3-9.66-4-13L644.9,63h-.16l-2.24,8.5-4.11,13.14Z" transform="translate(-2.75 -3.93)"/>
      <path id="Path_13" data-name="Path 13" class="cls-3" d="M716.62,103.32a27,27,0,0,1-15.28,4.09A29,29,0,0,1,687,104.1a22.41,22.41,0,0,1-9.25-9.66,32.89,32.89,0,0,1-3.22-15.08,32.91,32.91,0,0,1,3.22-15A22.46,22.46,0,0,1,687,54.58a32.27,32.27,0,0,1,29.33.45,18,18,0,0,1,8.21,11.27l-12.47,5a12.39,12.39,0,0,0-3.55-6.94,10.33,10.33,0,0,0-6.77-2,11.07,11.07,0,0,0-9.34,4.33,20.43,20.43,0,0,0-3.31,12.6A21.11,21.11,0,0,0,692.33,92a10.7,10.7,0,0,0,9.2,4.33,11,11,0,0,0,7.19-2.15,11.43,11.43,0,0,0,3.63-6.77L725.24,91A20.54,20.54,0,0,1,716.62,103.32Z" transform="translate(-2.75 -3.93)"/>
    </g>
    <path id="Path_14" data-name="Path 14" class="cls-3" d="M740.06,107.08H723.8L743.48,74.7,724.81,52.56h15.93l19.69,24.21V52.57h14.34v54.52H760.42V91.75l-6.67-8Z" transform="translate(-2.75 -3.93)"/>
  </g>
</svg>
