<svg id="Layer_1" data-name="Layer 1" xmlns="http://www.w3.org/2000/svg" viewBox="0 0 36 7.25">
  <defs>
    <style>
      .cls-1 {
        fill: none;
      }
    </style>
  </defs>
  <title>more_icon</title>
  <g id="Icon_feather-more-horizontal" data-name="Icon feather-more-horizontal">
    <g id="Path_3" data-name="Path 3">
      <path class="cls-1" d="M28.75,27.74a2.63,2.63,0,1,1-2.63-2.63A2.62,2.62,0,0,1,28.75,27.74Z" transform="translate(-8.12 -24.11)"/>
      <path d="M26.12,25.11a2.63,2.63,0,1,0,2.63,2.63,2.62,2.62,0,0,0-2.63-2.63m0-1a3.63,3.63,0,1,1-3.62,3.63A3.64,3.64,0,0,1,26.12,24.11Z" transform="translate(-8.12 -24.11)"/>
    </g>
    <g id="Path_4" data-name="Path 4">
      <path class="cls-1" d="M43.12,27.74a2.63,2.63,0,1,1-2.62-2.63A2.62,2.62,0,0,1,43.12,27.74Z" transform="translate(-8.12 -24.11)"/>
      <path d="M40.5,25.11a2.63,2.63,0,1,0,2.62,2.63,2.63,2.63,0,0,0-2.62-2.63m0-1a3.63,3.63,0,1,1-3.63,3.63A3.63,3.63,0,0,1,40.5,24.11Z" transform="translate(-8.12 -24.11)"/>
    </g>
    <g id="Path_5" data-name="Path 5">
      <path class="cls-1" d="M14.37,27.74a2.63,2.63,0,1,1-2.62-2.63A2.62,2.62,0,0,1,14.37,27.74Z" transform="translate(-8.12 -24.11)"/>
      <path d="M11.75,25.11a2.63,2.63,0,1,0,2.62,2.63,2.63,2.63,0,0,0-2.62-2.63m0-1a3.63,3.63,0,1,1-3.63,3.63A3.63,3.63,0,0,1,11.75,24.11Z" transform="translate(-8.12 -24.11)"/>
    </g>
  </g>
</svg>
