<svg id="Layer_1" data-name="Layer 1" xmlns="http://www.w3.org/2000/svg" viewBox="0 0 24 19.2">
  <title>user_edit_icon</title>
  <path id="Icon_awesome-user-edit" data-name="Icon awesome-user-edit" d="M22.52,20.29a4.8,4.8,0,1,0-4.8-4.8h0A4.8,4.8,0,0,0,22.52,20.29Zm3.36,1.2h-.63a6.51,6.51,0,0,1-5.46,0h-.63a5,5,0,0,0-5,5v1.56a1.81,1.81,0,0,0,1.8,1.8H26.23a1.82,1.82,0,0,1-.1-.8l.25-2.29.05-.41.3-.3,2.9-2.9A5,5,0,0,0,25.88,21.49Zm1.7,5.45-.26,2.28a.6.6,0,0,0,.53.66.28.28,0,0,0,.13,0l2.28-.25,5.18-5.17-2.69-2.69-5.17,5.17Zm10.28-6.17-1.42-1.42a.9.9,0,0,0-1.27,0l-1.42,1.42-.15.15,2.69,2.69L37.86,22A.9.9,0,0,0,37.86,20.77Z" transform="translate(-14.12 -10.69)"/>
</svg>
